PathFileType	4	(X/Y/Z)	C:/Users/beibeiliu/ov580/test_trc\sequence.32_training_dense_left.trc
DataRate	CameraRate	NumFrames	NumMarkers	Units	OrigDataRate	OrigDataStartFrame	OrigNumFrames
120	120	18	19	mm	120	1	103
Frame#	Time	ThumbCMC			ThumbMCP			ThumbIP			ThumbTip			IndexMCP			IndexPIP			IndexTip			MiddleMCP			MiddlePIP			MiddleTip			RingMCP			RingPIP			RingTip			PinkyMCP			PinkyPIP			PinkyTip			BackHand1			BackHand2			BackHand3	
		X0	Y0	Z0	X1	Y1	Z1	X2	Y2	Z2	X3	Y3	Z3	X4	Y4	Z4	X5	Y5	Z5	X6	Y6	Z6	X7	Y7	Z7	X8	Y8	Z8	X9	Y9	Z9	X10	Y10	Z10	X11	Y11	Z11	X12	Y12	Z12	X13	Y13	Z13	X14	Y14	Z14	X15	Y15	Z15	X16	Y16	Z16	X17	Y17	Z17	X18	Y18	Z18	
0	0	-151.021	39.3041	114.602	-137.427	31.811	80.3332	-142.625	32.3565	49.2769	-172.338	26.4506	34.2892	-164.2	75.7015	51.1861	-153.76	79.3603	28.4255	-146.566	81.9523	-1.00038	-178.131	68.3264	38.8185	-171.716	71.4848	13.2834	-164.894	73.8038	-14.4158	-189.291	53.5829	33.6232	-185.672	55.0781	13.2669	-180.305	57.8655	-12.1079	-201.338	31.1261	36.0654	-195.281	31.3199	19.3838	-192.12	40.3523	-3.53563	-208.443	44.0856	83.0966	-213.773	31.1887	115.282	-188.996	57.112	108.798	
1	0.00833333	-134.961	22.3257	116.851	-120.887	11.44	85.7694	-129.767	12.344	58.7929	-155.419	13.5055	42.3644	-130.909	56.8195	51.8227	-119.249	55.2109	26.7799	-111.293	52.4237	0.959785	-145.293	55.0298	38.439	-139.016	54.3393	18.1156	-131.485	53.3613	-12.1564	-167.178	43.4934	35.341	-156.822	43.4835	14.9356	-149.3	44.4151	-14.9016	-181.87	27.8897	42.3039	-175.462	25.7757	16.1168	-174.133	30.8698	-2.24987	-187.628	41.9353	86.6916	-194.162	37.7353	114.549	-161.318	50.6524	108.979	
2	0.0166667	-123.563	8.66975	125.243	-109.906	-5.89465	97.4863	-115.72	-5.5852	63.0169	-137.625	-2.40029	52.8364	-103.329	36.2074	54.7908	-97.6477	30.2848	34.5793	-85.8062	26.0848	12.6281	-127.37	36.3922	44.1981	-116.866	32.038	21.1591	-106.525	28.6716	-4.52336	-143.497	29.173	42.4863	-134.842	23.6102	14.8375	-128.804	20.6016	-9.64076	-166.064	17.1175	43.7164	-159.86	10.1244	22.3198	-154.231	11.2567	1.82405	-170.289	36.0746	88.0848	-177.12	33.2676	116.401	-145.669	40.0589	113.777	
3	0.025	-111.034	7.2009	131.829	-101.654	-10.4945	107.607	-104.932	-15.1428	78.1601	-124.158	-15.0137	62.8213	-94.5902	22.3659	62.0993	-79.9277	14.5222	42.4483	-77.4482	6.15982	22.632	-113.872	21.4897	53.0081	-103.232	12.7359	27.4588	-94.4635	5.43496	3.51316	-129.743	12.8914	47.314	-122.509	3.56609	24.4582	-113.856	-1.88502	5.63142	-150.702	1.963	55.0308	-143.105	-6.49539	33.6194	-140.745	-9.03628	11.2895	-157.451	26.0199	90.4482	-171.633	27.5553	117.83	-134.733	35.8474	116.035	
4	0.0333333	-113.678	18.1311	141.902	-94.4647	0.0157579	116.717	-92.7644	-10.1683	90.1517	-114.555	-15.7871	71.0173	-91.2348	28.7608	72.0823	-78.8935	19.0201	54.4663	-66.6115	9.88503	34.5001	-105.316	20.0009	55.5047	-92.4608	8.81632	36.0007	-83.3577	0.937886	16.6525	-126.837	3.70526	55.0253	-111	-4.53579	34.3412	-100.989	-14.9189	13.8725	-144.026	-10.4965	60.8312	-130.736	-16.9835	47.6212	-126.927	-23.4401	24.1682	-156.74	22.5098	94.9505	-165.928	27.8784	122.137	-136.637	38.9075	118.783	
5	0.0416667	-119.258	42.8981	139.033	-95.908	26.6516	122.22	-91.9355	12.1343	94.8595	-106.91	-3.66039	79.025	-101.156	49.2564	73.0757	-83.7945	36.892	52.966	-69.2802	31.9847	38.2091	-111.425	28.0727	58.5565	-94.213	22.8165	42.3584	-79.3365	11.3627	22.6145	-123.026	8.36475	60.9734	-105.142	0.286695	42.1936	-91.8361	-7.28294	26.5677	-133.318	-6.9996	70.3367	-119.483	-13.0211	59.6957	-110.474	-23.3132	38.2999	-159.56	24.938	101.042	-173.717	26.4035	124.393	-147.824	52.032	118.717	
6	0.05	-135.969	65.7838	134.415	-105.556	54.883	118.712	-96.7298	39.1573	99.7419	-105.998	17.6369	84.7096	-118.27	62.885	63.5223	-101.305	64.1906	51.8714	-83.5712	57.0401	34.4396	-121.186	40.9038	55.8522	-104.131	41.6543	42.2416	-82.1904	35.7222	20.9073	-125.194	24.4146	63.8308	-105.647	17.7552	46.2964	-85.5506	15.9791	26.2065	-127.163	0.670376	73.8889	-108.502	-1.63986	59.6915	-98.4282	-7.69831	42.4378	-163.751	26.7894	101.39	-181.222	23.7719	124.332	-169.08	55.1394	112.965	
7	0.0583333	-162.255	75.909	130.679	-128.467	77.2261	113.553	-111.341	63.5332	88.4338	-111.396	36.6411	79.9385	-143.78	71.5509	56.0223	-123.677	78.0289	39.7029	-107.343	74.4414	25.6975	-136.026	50.3568	51.2639	-118.877	53.3338	36.3287	-95.579	58.431	13.7121	-131.919	33.5695	60.0421	-110.61	30.5432	43.6815	-93.3148	33.7117	26.5883	-123.528	13.1192	72.1555	-109.007	16.4532	62.3984	-92.4094	12.9218	40.9744	-167.671	19.6257	99.9498	-182.713	18.4383	122.241	-186.626	52.5354	106.65	
8	0.0666667	-184.199	68.3786	120.532	-155.063	78.1508	101.891	-136.924	68.4267	83.1381	-126.535	40.8828	77.7119	-169.025	60.4108	50.3687	-150.802	70.5607	29.525	-134.932	78.3384	11.6165	-154.567	43.3617	48.4576	-134.09	49.6696	27.4272	-118.428	58.202	7.71758	-139.775	30.5436	55.5785	-122.251	34.8839	39.2603	-107.681	44.8387	17.8347	-127.472	16.9679	75.2286	-114.093	24.7783	60.8823	-97.5811	23.3237	40.3195	-169.153	13.8709	98.5493	-181.978	6.95123	126.482	-196.603	34.2936	105.787	
9	0.075	-202.209	45.8555	118.089	-179.112	65.3451	92.2982	-160.001	59.8728	72.3786	-143.233	35.4364	72.7882	-189.7	35.0398	45.2189	-176.719	42.4796	27.217	-163.039	50.7624	5.45875	-171.487	21.8906	42.7556	-159.412	29.8845	22.0155	-144.533	38.2575	0.287295	-155.418	15.3574	50.7979	-138.51	18.6744	35.3368	-127.44	29.3937	12.1683	-139.875	9.58855	72.6208	-123.172	16.2793	54.3642	-111.284	17.743	35.3468	-171.765	-5.11606	100.86	-182.014	-9.33857	125.289	-206.646	9.57489	107.297	
10	0.0833333	-216.776	24.6507	115.191	-197.713	41.1337	88.831	-178.734	34.7986	66.2582	-158.138	12.9298	63.6576	-206.404	3.86063	45.8472	-201.21	12.1455	24.1459	-187.667	18.2248	-0.0617907	-188.343	-8.02453	42.0389	-180.698	-1.68436	21.0543	-166.588	4.50967	-3.72151	-166.483	-11.9936	53.3961	-158.142	-7.24762	31.4868	-151.295	0.497003	4.52508	-153.178	-10.6201	70.0846	-140.558	-5.93539	49.4808	-129.873	-4.75371	29.3979	-180.157	-24.5791	104.184	-186.911	-25.2615	128.725	-213.951	-15.4283	111.524	
11	0.0916667	-221.716	11.3945	120.952	-209.367	27.6865	87.0144	-194.597	17.7444	62.3553	-176.466	-5.40941	62.0624	-227.422	-16.8121	50.1667	-223.006	-11.5681	25.1586	-214.128	-9.45098	4.62391	-209.344	-30.2386	48.9678	-201.923	-28.5628	21.4902	-194.234	-23.6218	-7.70205	-187.889	-34.141	56.4704	-184.203	-31.8921	31.2635	-176.509	-29.7555	6.01646	-171.797	-32.4103	63.6495	-163.814	-29.6571	47.5748	-152.448	-33.1168	22.3144	-193.482	-41.6193	105.846	-194.223	-39.6406	135.039	-226.283	-25.3338	116.48	
12	0.1	-224.393	9.80016	120.137	-209.331	19.8167	90.3847	-200.984	11.8605	61.7857	-189.652	-16.1723	56.5928	-245.304	-14.9821	54.8121	-244.458	-10.6486	31.2316	-237.842	-11.0915	9.7047	-232.167	-31.8268	50.9331	-227.153	-32.5406	23.196	-222.134	-31.5416	-1.82386	-209.673	-43.4096	56.3937	-211.537	-40.9842	29.0326	-206.984	-40.6599	4.03793	-190.182	-44.348	66.5971	-187.556	-43.2917	45.6451	-186.698	-48.3772	17.6214	-212.086	-42.4757	105.913	-207.315	-41.8135	138.477	-234.037	-24.1084	123.932	
13	0.108333	-215.043	22.3418	126.406	-202.138	29.9864	89.7628	-199.703	17.3708	62.1547	-196.546	-12.5046	56.7575	-247.261	5.22508	62.2589	-247.995	11.3487	38.8048	-245.426	12.7251	10.6519	-243.409	-13.9346	51.7688	-242.498	-11.2105	26.2237	-240.359	-10.0353	1.17345	-228.561	-28.6837	54.8039	-228.119	-28.3514	32.9863	-228.854	-26.0711	6.34375	-211.829	-36.0609	61.2974	-208.386	-36.6619	38.2183	-213.281	-38.7916	16.9317	-223.415	-33.2707	105.718	-219.072	-36.6289	135.585	-238.929	-10.5729	128.921	
14	0.116667	-206.332	33.5083	128.422	-189.977	40.5044	96.1713	-189.265	31.468	66.1461	-194.196	3.53628	56.5822	-240.424	27.979	60.8507	-238.891	34.3852	39.314	-238.212	37.8079	14.1083	-240.038	9.70498	55.1445	-239.187	13.4124	28.3594	-236.7	13.9681	-3.50579	-229.969	-8.98659	54.4623	-230.299	-7.47532	29.8233	-230.945	-3.01146	6.7857	-214.815	-25.0538	58.3158	-213.731	-22.69	41.1414	-221.139	-23.0253	13.898	-226.068	-23.6272	106.207	-221.268	-23.8106	132.718	-235.48	4.68345	125.845	
15	0.125	-199.256	41.3568	128.082	-182.081	48.328	97.4286	-180.069	45.3884	65.6933	-181.4	24.8812	51.5529	-231.307	43.768	60.9691	-229.702	52.2596	37.8715	-229.372	50.8636	9.66744	-230.495	20.781	52.3184	-228.506	29.3993	22.7349	-225.1	30.3967	-2.33376	-222.681	2.7929	52.3256	-221.116	8.0452	28.5535	-220.057	10.5553	2.46733	-210.566	-14.8021	56.5039	-209.169	-8.70817	37.7107	-215.52	-7.12135	13.3948	-224.31	-9.08375	100.114	-221.946	-14.7765	129.852	-233.541	18.6484	120.714	
16	0.133333	-196.608	47.523	128.681	-177.181	58.2347	98.2806	-170.775	60.7372	73.9494	-170.128	47.2052	47.9918	-223.044	47.049	59.1197	-220.347	52.8689	30.9324	-221.911	54.4279	8.65847	-219.623	24.1617	49.1729	-215.383	28.7703	20.0477	-209.638	32.1227	-5.85993	-213.123	10.8683	47.852	-209.303	10.2082	22.2596	-206.374	14.5532	-4.69307	-203.263	-9.25405	53.9726	-200.355	-6.56723	35.8773	-203.05	-5.24045	12.314	-220.441	-5.44866	100.655	-222.331	-8.1703	124.969	-228.824	22.9904	115.136	
17	0.141667	-196.671	51.5516	125.823	-177.101	61.5772	106.193	-169.187	72.4055	81.9203	-162.996	74.7376	55.8788	-216.16	47.9888	56.1676	-212.772	49.4785	27.5172	-214.147	50.3498	5.9272	-210.565	23.5118	41.687	-203.436	27.3171	18.6201	-192.836	26.4086	-12.0071	-203.459	5.11718	44.9606	-197.387	5.7752	23.6071	-190.58	13.7976	-2.7994	-196.05	-10.8726	57.1417	-190.456	-11.3461	33.2824	-190.897	-11.3422	14.0617	-217.124	-3.13943	96.1605	-219.023	-9.10385	122.522	-224.442	22.1302	112.952	
